<?xml version="1.0" encoding="UTF-8" standalone="no"?>
<!DOCTYPE svg PUBLIC "-//W3C//DTD SVG 1.1//EN" "http://www.w3.org/Graphics/SVG/1.1/DTD/svg11.dtd">
<svg width="16px" height="16px" version="1.1" xmlns="http://www.w3.org/2000/svg" xmlns:xlink="http://www.w3.org/1999/xlink" xml:space="preserve" xmlns:serif="http://www.serif.com/" style="fill-rule:evenodd;clip-rule:evenodd;stroke-linejoin:round;stroke-miterlimit:2;">
    <path d="M3,12L2,12C1.648,12 1.318,11.909 1.031,11.75L1.52,10.869C1.662,10.948 1.826,10.993 2,10.993L3.012,10.993L3.012,11.847C3.004,11.897 3,11.949 3,12ZM12.993,7.703L12.993,6.953L14,6.953L14,8.3C13.689,8.083 13.353,7.88 12.993,7.703ZM0,2.012L0,2C0,1.289 0.371,0.665 0.929,0.311L1.469,1.161C1.192,1.337 1.007,1.647 1.007,2L1.007,2.012L0,2.012ZM3.905,-0L3.905,1.007L2,1.007C1.98,1.007 1.96,1.008 1.94,1.009L1.882,0.003C1.921,0.001 1.96,0 2,-0L3.905,-0ZM6.941,-0L6.941,1.007L4.917,1.007L4.917,-0L6.941,-0ZM9.976,-0L9.976,1.007L7.953,1.007L7.953,-0L9.976,-0ZM12.969,0.25L12.48,1.131C12.338,1.052 12.174,1.007 12,1.007L10.988,1.007L10.988,-0L12,0C12.352,0 12.682,0.091 12.969,0.25ZM14,2.905L12.993,2.905L12.993,2C12.993,1.807 12.938,1.626 12.842,1.474L13.696,0.939C13.889,1.247 14,1.61 14,2L14,2.905ZM14,5.941L12.993,5.941L12.993,3.917L14,3.917L14,5.941ZM0,9.095L1.007,9.095L1.007,10C1.007,10.193 1.062,10.374 1.158,10.526L0.304,11.061C0.111,10.753 0,10.39 0,10L0,9.095ZM0,6.059L1.007,6.059L1.007,8.083L0,8.083L0,6.059ZM0,3.024L1.007,3.024L1.007,5.047L0,5.047L0,3.024Z" style="fill-opacity:0.5;"/>
    <path d="M16,12C16,12 14,16 10,16C6,16 4,12 4,12C4,12 6,8 10,8C14,8 16,12 16,12ZM10,9C8.344,9 7,10.344 7,12C7,13.656 8.344,15 10,15C11.656,15 13,13.656 13,12C13,10.344 11.656,9 10,9ZM9.915,10.002C9.943,10.001 9.972,10 10,10C11.104,10 12,10.896 12,12C12,13.104 11.104,14 10,14C8.896,14 8,13.104 8,12C8,11.972 8.001,11.943 8.002,11.915C8.158,11.97 8.325,12 8.5,12C9.328,12 10,11.328 10,10.5C10,10.325 9.97,10.158 9.915,10.002Z"/>
</svg>
