<?xml version="1.0" encoding="UTF-8" standalone="no"?>
<!DOCTYPE svg PUBLIC "-//W3C//DTD SVG 1.1//EN" "http://www.w3.org/Graphics/SVG/1.1/DTD/svg11.dtd">
<svg width="16px" height="16px" version="1.1" xmlns="http://www.w3.org/2000/svg" xmlns:xlink="http://www.w3.org/1999/xlink" xml:space="preserve" xmlns:serif="http://www.serif.com/" style="fill-rule:evenodd;clip-rule:evenodd;stroke-linejoin:round;stroke-miterlimit:2;">
    <path d="M1,1L3,1C3,0.448 3.448,-0 4,0L7,-0C7.552,-0 8,0.448 8,1L10,1C10.552,1 11,1.448 11,2C11,2.552 10.552,3 10,3L1,3C0.448,3 0,2.552 -0,2C-0,1.448 0.448,1 1,1ZM4.171,14L2,14C1.448,14 1,13.552 1,13L1,4L10,4L10,7C5.417,7 3.106,11.553 3.106,11.553C2.965,11.834 2.965,12.166 3.106,12.447C3.106,12.447 3.461,13.148 4.171,14Z" style="fill-opacity:0.5;"/>
    <path d="M16,12C16,12 14,16 10,16C6,16 4,12 4,12C4,12 6,8 10,8C14,8 16,12 16,12ZM10,9C8.344,9 7,10.344 7,12C7,13.656 8.344,15 10,15C11.656,15 13,13.656 13,12C13,10.344 11.656,9 10,9ZM9.915,10.002C9.943,10.001 9.972,10 10,10C11.104,10 12,10.896 12,12C12,13.104 11.104,14 10,14C8.896,14 8,13.104 8,12C8,11.972 8.001,11.943 8.002,11.915C8.158,11.97 8.325,12 8.5,12C9.328,12 10,11.328 10,10.5C10,10.325 9.97,10.158 9.915,10.002Z"/>
</svg>
